# xmcd
#
# Track frame offsets: 
#        150
#        12538
#        27508
#        39390
#        54453
#        63778
#        74188
#        95095
#        105540
#        117993
#        131130
#        144315
#        153780
#        173138
#        185753
#        195423
#
# Disc length: 2738 seconds
#
# Revision: 3
# Processed by: cddbd v1.5.2PL0 Copyright (c) Steve Scherf et al.
# Submitted via: ExactAudioCopy v0.99pb5
#
DISCID=e50ab010
DTITLE=Various Artist - COUNTRY FESTIVAL - VOL. 1
DYEAR=1993
DGENRE=Country
TTITLE0=KENNY ROGERS - Reuben James
TTITLE1=DON DAVID - JR. - Red River Valley
TTITLE2=FRANKIE LAINE - Mule Skinner Blues
TTITLE3=WILLIE NELSON - Face Of A Fighter
TTITLE4=GEORGE JONES - World's Worst Loser
TTITLE5=FARON YOUNG - Hello Walls
TTITLE6=ANDRE LAMBERZ and HILLS ANGELS - The Bluest Eyes Of Texas
TTITLE7=MICKEY GILLEY - My Babe
TTITLE8=GENE SIMMONS - Catahula Cour Dog
TTITLE9=BOBBY HELMS - Fraulein
TTITLE10=STU STEVENS - Love Me Tender
TTITLE11=DON WILLIAMS - Apartment No. 9
TTITLE12=DAVE TRAVIS - Sweet Country Music
TTITLE13=OAK RIDGE BOYS - You'll Never Walk Alone
TTITLE14=DONNA FARGO - Sticks And Stones
TTITLE15=CARL PERKINS - Daddy Sang Bass
EXTD=
EXTT0=
EXTT1=
EXTT2=
EXTT3=
EXTT4=
EXTT5=
EXTT6=
EXTT7=
EXTT8=
EXTT9=
EXTT10=
EXTT11=
EXTT12=
EXTT13=
EXTT14=
EXTT15=
PLAYORDER=
